<svg width="368" height="302" viewBox="0 0 368 302" fill="none" xmlns="http://www.w3.org/2000/svg">
<g filter="url(#filter0_f_659_6253)">
<path d="M284.266 385.733C257.579 394.286 229.085 395.516 201.761 389.296C174.436 383.075 149.283 369.631 128.928 350.369C108.574 331.106 93.7654 306.732 86.0493 279.791C78.3331 252.85 77.9925 224.332 85.063 197.215C92.1336 170.097 106.356 145.376 126.244 125.633C146.133 105.89 170.958 91.8493 198.126 84.9778C225.294 78.1063 253.81 78.656 280.693 86.5695C307.576 94.483 331.842 109.47 350.954 129.965L293.048 183.966C283.605 173.841 271.616 166.436 258.334 162.526C245.052 158.617 230.964 158.345 217.541 161.74C204.118 165.135 191.853 172.072 182.027 181.826C172.201 191.58 165.174 203.794 161.681 217.192C158.187 230.59 158.356 244.679 162.168 257.99C165.98 271.3 173.297 283.343 183.353 292.86C193.409 302.376 205.836 309.019 219.337 312.092C232.837 315.165 246.914 314.557 260.099 310.331L284.266 385.733Z" fill="#D62C46" fill-opacity="0.15"/>
</g>
<g filter="url(#filter1_f_659_6253)">
<path d="M295.344 393.2C321.932 393.2 348.083 386.426 371.327 373.517C394.572 360.607 414.144 341.988 428.198 319.417C442.251 296.846 450.322 271.066 451.649 244.51C452.976 217.955 447.515 191.499 435.782 167.639C424.048 143.779 406.43 123.302 384.588 108.14C362.746 92.9776 337.401 83.6303 310.945 80.9797C284.488 78.3292 257.793 82.4629 233.377 92.9907C208.962 103.519 187.631 120.094 171.397 141.152L235.108 190.265C242.997 180.031 253.363 171.976 265.229 166.86C277.095 161.743 290.068 159.734 302.926 161.022C315.783 162.31 328.1 166.853 338.715 174.222C349.33 181.59 357.892 191.542 363.594 203.138C369.297 214.733 371.951 227.59 371.306 240.496C370.661 253.401 366.738 265.93 359.909 276.899C353.079 287.869 343.567 296.917 332.271 303.191C320.974 309.465 308.265 312.757 295.344 312.757L295.344 393.2Z" fill="#5FD2BC" fill-opacity="0.15"/>
</g>
<defs>
<filter id="filter0_f_659_6253" x="0.0510941" y="0.251289" width="430.852" height="472.898" filterUnits="userSpaceOnUse" color-interpolation-filters="sRGB">
<feFlood flood-opacity="0" result="BackgroundImageFix"/>
<feBlend mode="normal" in="SourceGraphic" in2="BackgroundImageFix" result="shape"/>
<feGaussianBlur stdDeviation="39.9745" result="effect1_foregroundBlur_659_6253"/>
</filter>
<filter id="filter1_f_659_6253" x="91.4484" y="0.251289" width="440.344" height="472.898" filterUnits="userSpaceOnUse" color-interpolation-filters="sRGB">
<feFlood flood-opacity="0" result="BackgroundImageFix"/>
<feBlend mode="normal" in="SourceGraphic" in2="BackgroundImageFix" result="shape"/>
<feGaussianBlur stdDeviation="39.9745" result="effect1_foregroundBlur_659_6253"/>
</filter>
</defs>
</svg>
