<svg width="48" height="46" viewBox="0 0 48 46" fill="none" xmlns="http://www.w3.org/2000/svg">
<rect x="0.00195312" y="0.598633" width="48" height="44.802" rx="22.401" fill="#F0E1DC"/>
<g clip-path="url(#clip0_639_6223)">
<path d="M27.1894 20.2588C26.9192 20.2589 26.6575 20.3528 26.4488 20.5243C26.24 20.6958 26.0972 20.9343 26.0447 21.1994C25.9921 21.4644 26.033 21.7394 26.1605 21.9776C26.2879 22.2158 26.4941 22.4025 26.7437 22.5057C26.9933 22.609 27.271 22.6225 27.5295 22.544C27.788 22.4654 28.0112 22.2997 28.1612 22.075C28.3112 21.8503 28.3786 21.5805 28.352 21.3117C28.3255 21.0428 28.2065 20.7915 28.0154 20.6005C27.907 20.4919 27.7783 20.4058 27.6365 20.3472C27.4947 20.2885 27.3428 20.2585 27.1894 20.2588Z" fill="#D62C46"/>
<path d="M33.6898 15.5889C33.6896 15.5876 33.6896 15.5863 33.6898 15.585C33.6528 15.4228 33.5712 15.2742 33.4542 15.1559C33.3373 15.0376 33.1896 14.9544 33.0278 14.9156C31.7241 14.5975 29.6731 14.9366 27.4003 15.8467C25.1095 16.7655 22.9632 18.1219 21.5124 19.5754C21.0474 20.038 20.6154 20.5326 20.2196 21.0556C19.2427 21.0119 18.3821 21.151 17.6572 21.4674C15.131 22.5792 14.4096 25.4245 14.2175 26.5928C14.1897 26.7588 14.2006 26.929 14.2493 27.09C14.298 27.2511 14.3833 27.3988 14.4984 27.5216C14.6135 27.6444 14.7554 27.739 14.913 27.7979C15.0706 27.8569 15.2397 27.8787 15.4071 27.8617H15.4128L18.2268 27.5545C18.2303 27.5904 18.2342 27.6232 18.2373 27.6534C18.2734 27.9963 18.4263 28.3164 18.6704 28.56L20.0437 29.9343C20.2869 30.1788 20.6069 30.3319 20.9498 30.3679L21.0438 30.378L20.7376 33.1888V33.1945C20.7219 33.3459 20.7381 33.4989 20.7849 33.6437C20.8317 33.7885 20.9083 33.9219 21.0096 34.0354C21.1109 34.149 21.2348 34.2401 21.3734 34.303C21.512 34.3659 21.6621 34.3992 21.8143 34.4008C21.8751 34.4009 21.9358 34.3959 21.9958 34.3859C23.1705 34.1969 26.0143 33.4841 27.1229 30.9442C27.4366 30.224 27.5753 29.3668 27.5363 28.3915C28.0617 27.9966 28.558 27.5645 29.0217 27.0986C30.4842 25.6433 31.8448 23.5142 32.754 21.2565C33.6592 19.0092 34 16.9427 33.6898 15.5889ZM29.0059 23.2407C28.6464 23.6006 28.1883 23.8458 27.6895 23.9453C27.1906 24.0447 26.6735 23.9939 26.2035 23.7994C25.7335 23.6048 25.3318 23.2752 25.0492 22.8523C24.7665 22.4294 24.6157 21.9321 24.6157 21.4234C24.6157 20.9147 24.7665 20.4174 25.0492 19.9945C25.3318 19.5716 25.7335 19.242 26.2035 19.0474C26.6735 18.8529 27.1906 18.8021 27.6895 18.9015C28.1883 19.001 28.6464 19.2462 29.0059 19.606C29.2469 19.8434 29.4382 20.1263 29.5688 20.4383C29.6994 20.7503 29.7667 21.0852 29.7667 21.4234C29.7667 21.7616 29.6994 22.0965 29.5688 22.4085C29.4382 22.7205 29.2469 23.0034 29.0059 23.2407Z" fill="#D62C46"/>
<path d="M19.8855 30.3065C19.7163 30.2855 19.5451 30.327 19.4043 30.4233C19.1247 30.6145 18.8439 30.8035 18.5604 30.9877C17.9868 31.3605 17.3008 30.7059 17.6416 30.1126L18.1732 29.1938C18.2492 29.0826 18.2915 28.9519 18.295 28.8172C18.2986 28.6826 18.2633 28.5498 18.1933 28.4348C18.1232 28.3197 18.0215 28.2273 17.9003 28.1686C17.7791 28.1099 17.6436 28.0874 17.5099 28.1039C16.92 28.1785 16.3716 28.4472 15.9511 28.8678C15.791 29.0284 15.304 29.5158 15.042 31.3732C14.9674 31.9067 14.9204 32.4437 14.9011 32.9821C14.8987 33.0755 14.9151 33.1685 14.9492 33.2555C14.9833 33.3425 15.0344 33.4218 15.0997 33.4887C15.1649 33.5556 15.2429 33.6088 15.329 33.6451C15.4151 33.6814 15.5077 33.7001 15.6011 33.7001H15.6186C16.1573 33.681 16.6947 33.6343 17.2286 33.5601C19.0867 33.2975 19.574 32.8101 19.7342 32.65C20.1567 32.2293 20.4247 31.6783 20.495 31.0862C20.5175 30.902 20.4659 30.7164 20.3516 30.5702C20.2374 30.424 20.0697 30.3291 19.8855 30.3065Z" fill="#D62C46"/>
</g>
<defs>
<clipPath id="clip0_639_6223">
<rect width="19.2" height="19.202" fill="white" transform="translate(12.802 13.3984)"/>
</clipPath>
</defs>
</svg>
