<svg width="343" height="348" viewBox="0 0 343 348" fill="none" xmlns="http://www.w3.org/2000/svg">
<rect y="1.52588e-05" width="343" height="348" rx="16" fill="#444444"/>
<path fill-rule="evenodd" clip-rule="evenodd" d="M221.645 116.228C218.63 110.591 210.549 110.591 207.535 116.228L150.393 223.094C150.34 222.983 150.284 222.872 150.225 222.762L114.644 156.226C111.63 150.59 103.549 150.59 100.535 156.226L64.9548 222.762C62.105 228.091 65.9662 234.534 72.0095 234.534H143.17C146.268 234.534 148.793 232.841 150.134 230.472C151.39 233.099 154.046 235.034 157.358 235.034H271.821C277.865 235.034 281.726 228.591 278.876 223.262L221.645 116.228Z" fill="white"/>
</svg>
