<svg width="44" height="43" viewBox="0 0 44 43" fill="none" xmlns="http://www.w3.org/2000/svg">
<rect x="0.931885" y="0.59375" width="42.1284" height="42.1284" rx="21.0642" fill="#ECF3FB"/>
<path d="M17.9128 18.478C17.8664 18.4203 17.8088 18.3725 17.7436 18.3376C17.6783 18.3026 17.6066 18.2812 17.5328 18.2746C17.4591 18.2681 17.3847 18.2764 17.3143 18.2993C17.2439 18.3221 17.1787 18.3589 17.1229 18.4075L13.7375 21.2286C13.674 21.2809 13.6229 21.3466 13.5878 21.421C13.5526 21.4953 13.5344 21.5766 13.5344 21.6588C13.5344 21.7411 13.5526 21.8223 13.5878 21.8967C13.6229 21.9711 13.674 22.0368 13.7375 22.0891L17.1229 24.9102C17.1787 24.9588 17.2439 24.9956 17.3143 25.0184C17.3847 25.0412 17.4591 25.0496 17.5328 25.043C17.6066 25.0364 17.6783 25.015 17.7436 24.9801C17.8088 24.9451 17.8664 24.8974 17.9128 24.8396C17.9614 24.7838 17.9982 24.7186 18.021 24.6482C18.0439 24.5778 18.0522 24.5034 18.0457 24.4297C18.0391 24.3559 18.0177 24.2842 17.9827 24.2189C17.9478 24.1537 17.9 24.0961 17.8422 24.0497L14.9788 21.6588L17.8422 19.268C17.9 19.2216 17.9478 19.164 17.9827 19.0987C18.0177 19.0334 18.0391 18.9618 18.0457 18.888C18.0522 18.8143 18.0439 18.7399 18.021 18.6695C17.9982 18.599 17.9614 18.5339 17.9128 18.478Z" fill="#3C3C3C"/>
<path d="M30.255 21.2286L26.8696 18.4075C26.7539 18.3308 26.614 18.2994 26.4766 18.3193C26.3392 18.3393 26.2139 18.4093 26.1249 18.5158C26.0358 18.6223 25.9892 18.758 25.9938 18.8967C25.9985 19.0355 26.0542 19.1677 26.1503 19.268L29.0137 21.6588L26.1503 24.0497C26.0625 24.1242 25.9996 24.2237 25.97 24.3349C25.9404 24.4461 25.9456 24.5637 25.9847 24.6719C26.0238 24.7801 26.0951 24.8738 26.189 24.9403C26.2829 25.0068 26.3949 25.0431 26.5099 25.0442C26.6422 25.0448 26.77 24.9971 26.8696 24.9102L30.255 22.0891C30.3185 22.0368 30.3696 21.9711 30.4047 21.8967C30.4399 21.8223 30.4581 21.7411 30.4581 21.6588C30.4581 21.5766 30.4399 21.4954 30.4047 21.421C30.3696 21.3466 30.3185 21.2809 30.255 21.2286Z" fill="#3C3C3C"/>
<path d="M24.4433 14.9233C24.3739 14.8976 24.3001 14.886 24.2261 14.8892C24.1522 14.8923 24.0796 14.9102 24.0126 14.9417C23.9457 14.9732 23.8856 15.0178 23.8361 15.0727C23.7865 15.1277 23.7484 15.192 23.724 15.2619L19.2102 27.6747C19.1845 27.7441 19.1729 27.818 19.176 27.8919C19.1792 27.9659 19.1971 28.0384 19.2286 28.1054C19.2601 28.1724 19.3046 28.2324 19.3596 28.282C19.4146 28.3315 19.4789 28.3697 19.5487 28.3941C19.6099 28.416 19.6742 28.4279 19.7392 28.4294C19.8553 28.4299 19.9687 28.3942 20.0635 28.3272C20.1584 28.2602 20.2299 28.1652 20.2681 28.0556L24.7819 15.6427C24.8076 15.5733 24.8192 15.4995 24.816 15.4255C24.8129 15.3516 24.795 15.279 24.7635 15.212C24.732 15.145 24.6874 15.085 24.6325 15.0355C24.5775 14.9859 24.5132 14.9478 24.4433 14.9233Z" fill="#3C3C3C"/>
</svg>
