<svg width="48" height="49" viewBox="0 0 48 49" fill="none" xmlns="http://www.w3.org/2000/svg">
<rect y="0.594238" width="48" height="48" rx="24" fill="#ECF3FB"/>
<path d="M22.3336 38.9998H25.6936C26.9736 38.9998 27.8003 38.0932 27.5603 36.9865L27.0136 34.5732H21.0136L20.4669 36.9865C20.2269 38.0265 21.1336 38.9998 22.3336 38.9998Z" stroke="#4B8EB2" stroke-width="1.5" stroke-linecap="round" stroke-linejoin="round"/>
<path d="M27.0134 34.56L29.3201 32.5066C30.6134 31.3599 30.6667 30.5599 29.6401 29.2665L25.5734 24.1066C24.7201 23.0266 23.3201 23.0266 22.4667 24.1066L18.4001 29.2665C17.3734 30.5599 17.3734 31.3999 18.7201 32.5066L21.0267 34.56" stroke="#4B8EB2" stroke-width="1.5" stroke-linecap="round" stroke-linejoin="round"/>
<path d="M24.0132 23.8267V27.2" stroke="#4B8EB2" stroke-width="1.5" stroke-linecap="round" stroke-linejoin="round"/>
<path d="M22.8664 15.92L21.8264 14.8799C21.1998 14.2532 21.1998 13.24 21.8264 12.6133L22.8664 11.5733C23.4931 10.9466 24.5064 10.9466 25.1331 11.5733L26.1731 12.6133C26.7998 13.24 26.7998 14.2532 26.1731 14.8799L25.1331 15.92C24.5064 16.5466 23.4931 16.5466 22.8664 15.92Z" stroke="#4B8EB2" stroke-width="1.5" stroke-linecap="round" stroke-linejoin="round"/>
<path d="M33.9335 22.0801H35.4002C36.2802 22.0801 37.0002 22.8001 37.0002 23.6801V25.1467C37.0002 26.0267 36.2802 26.7468 35.4002 26.7468H33.9335C33.0535 26.7468 32.3335 26.0267 32.3335 25.1467V23.6801C32.3335 22.8001 33.0535 22.0801 33.9335 22.0801Z" stroke="#4B8EB2" stroke-width="1.5" stroke-linecap="round" stroke-linejoin="round"/>
<path d="M14.0667 22.0801H12.6C11.72 22.0801 11 22.8001 11 23.6801V25.1467C11 26.0267 11.72 26.7468 12.6 26.7468H14.0667C14.9467 26.7468 15.6667 26.0267 15.6667 25.1467V23.6801C15.6667 22.8001 14.9467 22.0801 14.0667 22.0801Z" stroke="#4B8EB2" stroke-width="1.5" stroke-linecap="round" stroke-linejoin="round"/>
<path d="M32.72 22.4666L25.6533 15.3999" stroke="#4B8EB2" stroke-width="1.5" stroke-linecap="round" stroke-linejoin="round"/>
<path d="M15.2798 22.4666L22.3465 15.3999" stroke="#4B8EB2" stroke-width="1.5" stroke-linecap="round" stroke-linejoin="round"/>
</svg>
