<svg width="44" height="43" viewBox="0 0 44 43" fill="none" xmlns="http://www.w3.org/2000/svg">
<rect x="0.935791" y="-0.00585938" width="42.1284" height="42.1284" rx="21.0642" fill="#FFF4F1"/>
<path d="M17.9166 17.8784C17.8702 17.8207 17.8127 17.7729 17.7474 17.738C17.6821 17.703 17.6104 17.6816 17.5367 17.675C17.4629 17.6684 17.3886 17.6768 17.3181 17.6997C17.2477 17.7225 17.1826 17.7593 17.1267 17.8079L13.7414 20.629C13.6779 20.6813 13.6267 20.747 13.5916 20.8213C13.5565 20.8957 13.5383 20.977 13.5383 21.0592C13.5383 21.1415 13.5565 21.2227 13.5916 21.2971C13.6267 21.3715 13.6779 21.4372 13.7414 21.4894L17.1267 24.3105C17.1826 24.3591 17.2477 24.396 17.3181 24.4188C17.3886 24.4416 17.4629 24.45 17.5367 24.4434C17.6104 24.4368 17.6821 24.4154 17.7474 24.3805C17.8127 24.3455 17.8702 24.2977 17.9166 24.24C17.9652 24.1841 18.002 24.119 18.0249 24.0486C18.0477 23.9781 18.0561 23.9038 18.0495 23.8301C18.0429 23.7563 18.0215 23.6846 17.9865 23.6193C17.9516 23.554 17.9038 23.4965 17.8461 23.4501L14.9827 21.0592L17.8461 18.6683C17.9038 18.622 17.9516 18.5644 17.9865 18.4991C18.0215 18.4338 18.0429 18.3622 18.0495 18.2884C18.0561 18.2146 18.0477 18.1403 18.0249 18.0699C18.002 17.9994 17.9652 17.9343 17.9166 17.8784Z" fill="#DC6975"/>
<path d="M30.2588 20.629L26.8735 17.8079C26.7578 17.7312 26.6178 17.6998 26.4804 17.7197C26.343 17.7397 26.2178 17.8097 26.1287 17.9162C26.0397 18.0227 25.993 18.1583 25.9977 18.2971C26.0024 18.4359 26.0581 18.5681 26.1541 18.6684L29.0175 21.0592L26.1541 23.4501C26.0664 23.5246 26.0035 23.6241 25.9739 23.7353C25.9443 23.8465 25.9494 23.9641 25.9885 24.0723C26.0277 24.1805 26.099 24.2741 26.1929 24.3407C26.2867 24.4072 26.3987 24.4435 26.5138 24.4446C26.646 24.4452 26.7739 24.3975 26.8735 24.3106L30.2588 21.4895C30.3223 21.4372 30.3735 21.3715 30.4086 21.2971C30.4437 21.2227 30.4619 21.1415 30.4619 21.0592C30.4619 20.977 30.4437 20.8957 30.4086 20.8214C30.3735 20.747 30.3223 20.6813 30.2588 20.629Z" fill="#DC6975"/>
<path d="M24.4472 14.3237C24.3778 14.298 24.3039 14.2864 24.23 14.2896C24.156 14.2927 24.0835 14.3106 24.0165 14.3421C23.9495 14.3736 23.8895 14.4182 23.8399 14.4731C23.7904 14.5281 23.7522 14.5924 23.7278 14.6623L19.214 27.0751C19.1883 27.1445 19.1767 27.2184 19.1799 27.2923C19.183 27.3663 19.2009 27.4388 19.2324 27.5058C19.2639 27.5728 19.3085 27.6328 19.3634 27.6824C19.4184 27.7319 19.4827 27.77 19.5526 27.7945C19.6138 27.8164 19.6781 27.8283 19.743 27.8297C19.8591 27.8303 19.9725 27.7946 20.0674 27.7276C20.1622 27.6606 20.2337 27.5656 20.272 27.456L24.7857 15.0431C24.8114 14.9737 24.823 14.8999 24.8199 14.8259C24.8167 14.752 24.7989 14.6794 24.7674 14.6124C24.7358 14.5454 24.6913 14.4854 24.6363 14.4358C24.5814 14.3863 24.5171 14.3482 24.4472 14.3237Z" fill="#DC6975"/>
</svg>
