<svg width="48" height="46" viewBox="0 0 48 46" fill="none" xmlns="http://www.w3.org/2000/svg">
<rect y="0.69873" width="48" height="44.802" rx="22.401" fill="#ECF3FB"/>
<g clip-path="url(#clip0_302_6598)">
<path d="M27.1874 20.3591C26.9172 20.3593 26.6555 20.4531 26.4467 20.6246C26.238 20.7961 26.0952 21.0347 26.0426 21.2997C25.9901 21.5647 26.031 21.8397 26.1585 22.0779C26.2859 22.3162 26.492 22.5028 26.7416 22.6061C26.9913 22.7093 27.269 22.7229 27.5275 22.6443C27.7859 22.5658 28.0092 22.4 28.1592 22.1753C28.3092 21.9506 28.3766 21.6809 28.35 21.412C28.3234 21.1431 28.2045 20.8918 28.0134 20.7009C27.905 20.5923 27.7762 20.5062 27.6345 20.4475C27.4927 20.3889 27.3408 20.3588 27.1874 20.3591Z" fill="#4B8EB2"/>
<path d="M33.6878 15.6893C33.6876 15.688 33.6876 15.6866 33.6878 15.6853C33.6508 15.5232 33.5692 15.3745 33.4522 15.2562C33.3353 15.1379 33.1876 15.0547 33.0258 15.0159C31.7221 14.6978 29.6711 15.0369 27.3983 15.947C25.1075 16.8658 22.9611 18.2222 21.5104 19.6758C21.0454 20.1383 20.6134 20.633 20.2176 21.156C19.2406 21.1122 18.3801 21.2514 17.6551 21.5677C15.129 22.6795 14.4076 25.5249 14.2155 26.6931C14.1877 26.8591 14.1986 27.0293 14.2473 27.1904C14.296 27.3515 14.3812 27.4992 14.4963 27.622C14.6114 27.7447 14.7533 27.8393 14.9109 27.8983C15.0685 27.9573 15.2376 27.9791 15.4051 27.962H15.4108L18.2248 27.6549C18.2283 27.6907 18.2322 27.7236 18.2353 27.7537C18.2714 28.0967 18.4243 28.4168 18.6684 28.6603L20.0417 30.0347C20.2849 30.2791 20.6049 30.4322 20.9478 30.4683L21.0418 30.4783L20.7356 33.2891V33.2948C20.7199 33.4462 20.736 33.5992 20.7829 33.744C20.8297 33.8888 20.9062 34.0222 21.0076 34.1358C21.1089 34.2493 21.2328 34.3404 21.3714 34.4034C21.5099 34.4663 21.6601 34.4996 21.8123 34.5011C21.8731 34.5012 21.9338 34.4962 21.9938 34.4863C23.1685 34.2972 26.0123 33.5845 27.1209 31.0445C27.4346 30.3243 27.5733 29.4672 27.5343 28.4919C28.0596 28.0969 28.556 27.6648 29.0196 27.1989C30.4822 25.7437 31.8428 23.6146 32.7519 21.3568C33.6571 19.1096 33.9979 17.043 33.6878 15.6893ZM29.0039 23.3411C28.6444 23.701 28.1863 23.9462 27.6874 24.0456C27.1886 24.145 26.6715 24.0943 26.2015 23.8997C25.7315 23.7052 25.3298 23.3756 25.0471 22.9526C24.7645 22.5297 24.6136 22.0324 24.6136 21.5237C24.6136 21.015 24.7645 20.5178 25.0471 20.0948C25.3298 19.6719 25.7315 19.3423 26.2015 19.1478C26.6715 18.9532 27.1886 18.9024 27.6874 19.0019C28.1863 19.1013 28.6444 19.3465 29.0039 19.7064C29.2448 19.9437 29.4362 20.2267 29.5668 20.5386C29.6974 20.8506 29.7646 21.1855 29.7646 21.5237C29.7646 21.862 29.6974 22.1968 29.5668 22.5088C29.4362 22.8208 29.2448 23.1037 29.0039 23.3411Z" fill="#4B8EB2"/>
<path d="M19.8835 30.4073C19.7143 30.3863 19.5431 30.4278 19.4023 30.5241C19.1227 30.7153 18.8419 30.9043 18.5584 31.0886C17.9848 31.4613 17.2988 30.8068 17.6396 30.2135L18.1712 29.2946C18.2472 29.1834 18.2895 29.0527 18.293 28.9181C18.2966 28.7834 18.2613 28.6506 18.1913 28.5356C18.1213 28.4205 18.0195 28.3281 17.8983 28.2694C17.7771 28.2107 17.6416 28.1883 17.5079 28.2047C16.918 28.2793 16.3696 28.5481 15.9491 28.9686C15.789 29.1292 15.302 29.6167 15.04 31.474C14.9654 32.0075 14.9184 32.5445 14.8991 33.0829C14.8967 33.1763 14.9131 33.2693 14.9472 33.3563C14.9813 33.4433 15.0324 33.5226 15.0977 33.5896C15.1629 33.6565 15.2409 33.7097 15.327 33.746C15.4131 33.7823 15.5057 33.8009 15.5991 33.8009H15.6166C16.1553 33.7818 16.6927 33.7351 17.2266 33.6609C19.0847 33.3984 19.572 32.9109 19.7322 32.7508C20.1547 32.3301 20.4227 31.7791 20.493 31.187C20.5155 31.0028 20.4639 30.8172 20.3496 30.671C20.2354 30.5248 20.0677 30.4299 19.8835 30.4073Z" fill="#4B8EB2"/>
</g>
<defs>
<clipPath id="clip0_302_6598">
<rect width="19.2" height="19.202" fill="white" transform="translate(12.8 13.4988)"/>
</clipPath>
</defs>
</svg>
