<svg width="49" height="49" viewBox="0 0 49 49" fill="none" xmlns="http://www.w3.org/2000/svg">
<rect x="0.5" y="0.987305" width="48" height="48" rx="24" fill="#F0E1DC"/>
<path d="M37.8333 31.3189V15.2256C37.8333 13.6256 36.5266 12.4389 34.94 12.5723H34.86C32.06 12.8123 27.8066 14.2389 25.4333 15.7323L25.2066 15.8789C24.82 16.1189 24.18 16.1189 23.7933 15.8789L23.46 15.6789C21.0866 14.1989 16.8466 12.7856 14.0466 12.5589C12.46 12.4256 11.1666 13.6256 11.1666 15.2123V31.3189C11.1666 32.5989 12.2066 33.7989 13.4866 33.9589L13.8733 34.0123C16.7666 34.3989 21.2333 35.8656 23.7933 37.2656L23.8466 37.2923C24.2066 37.4923 24.78 37.4923 25.1266 37.2923C27.6866 35.8789 32.1666 34.3989 35.0733 34.0123L35.5133 33.9589C36.7933 33.7989 37.8333 32.5989 37.8333 31.3189Z" stroke="#D62C46" stroke-width="1.5" stroke-linecap="round" stroke-linejoin="round"/>
<path d="M24.5 16.3193V36.3193" stroke="#D62C46" stroke-width="1.5" stroke-linecap="round" stroke-linejoin="round"/>
<path d="M18.8334 20.3193H15.8334" stroke="#D62C46" stroke-width="1.5" stroke-linecap="round" stroke-linejoin="round"/>
<path d="M19.8334 24.3193H15.8334" stroke="#D62C46" stroke-width="1.5" stroke-linecap="round" stroke-linejoin="round"/>
</svg>
