<svg width="48" height="48" viewBox="0 0 48 48" fill="none" xmlns="http://www.w3.org/2000/svg">
<rect y="-0.000976562" width="48" height="48" rx="24" fill="#EDF9E7"/>
<path d="M21.4 11.3841L13.3734 16.6241C10.8 18.3041 10.8 22.0641 13.3734 23.7441L21.4 28.9841C22.84 29.9308 25.2134 29.9308 26.6534 28.9841L34.64 23.7441C37.2 22.0641 37.2 18.3175 34.64 16.6375L26.6534 11.3975C25.2134 10.4375 22.84 10.4375 21.4 11.3841Z" stroke="#78BC0B" stroke-width="1.5" stroke-linecap="round" stroke-linejoin="round"/>
<path d="M15.5066 25.4512L15.4933 31.7045C15.4933 33.3978 16.8 35.2112 18.4 35.7445L22.6533 37.1578C23.3866 37.3978 24.6 37.3978 25.3466 37.1578L29.6 35.7445C31.2 35.2112 32.5066 33.3978 32.5066 31.7045V25.5178" stroke="#78BC0B" stroke-width="1.5" stroke-linecap="round" stroke-linejoin="round"/>
<path d="M36.5333 28.0107V20.0107" stroke="#78BC0B" stroke-width="1.5" stroke-linecap="round" stroke-linejoin="round"/>
</svg>
