<svg width="32" height="32" viewBox="0 0 32 32" fill="none" xmlns="http://www.w3.org/2000/svg">
<path d="M12.4399 7.99805L19.5599 7.99805C23.9866 7.99805 25.7866 11.1314 23.5866 14.958L22.5999 16.6647C22.3599 17.078 21.9199 17.3314 21.4399 17.3314H10.5599C10.0799 17.3314 9.63994 17.078 9.39994 16.6647L8.41327 14.958C6.21327 11.1314 8.01327 7.99805 12.4399 7.99805Z" fill="#2A0088"/>
<path d="M11.72 18.6646H20.2933C20.8133 18.6646 21.1333 19.2246 20.8666 19.6646L20.0133 21.1312C17.8133 24.9579 14.1866 24.9579 11.9866 21.1312L11.1333 19.6646C10.88 19.2246 11.2 18.6646 11.72 18.6646Z" fill="#32376F"/>
</svg>
