<svg width="20" height="20" viewBox="0 0 20 20" fill="none" xmlns="http://www.w3.org/2000/svg">
<g clip-path="url(#clip0_639_6224)">
<path d="M15.1894 7.25879C14.9192 7.25894 14.6575 7.35276 14.4488 7.52426C14.24 7.69577 14.0972 7.93435 14.0447 8.19936C13.9921 8.46436 14.033 8.7394 14.1605 8.97761C14.2879 9.21581 14.4941 9.40245 14.7437 9.50573C14.9933 9.609 15.271 9.62252 15.5295 9.54398C15.788 9.46543 16.0112 9.29969 16.1612 9.07499C16.3112 8.85028 16.3786 8.58052 16.352 8.31166C16.3255 8.0428 16.2065 7.79148 16.0154 7.60052C15.907 7.49192 15.7783 7.40582 15.6365 7.34718C15.4947 7.28853 15.3428 7.25849 15.1894 7.25879Z" fill="#D62C46"/>
<path d="M21.6898 2.58894C21.6896 2.58763 21.6896 2.5863 21.6898 2.585C21.6528 2.42281 21.5712 2.27418 21.4542 2.1559C21.3373 2.03761 21.1896 1.95436 21.0278 1.91555C19.7241 1.59746 17.6731 1.93656 15.4003 2.84665C13.1095 3.7655 10.9632 5.12189 9.51241 6.57542C9.04741 7.038 8.61541 7.53262 8.2196 8.05564C7.24266 8.01189 6.3821 8.15103 5.65716 8.46737C3.13103 9.57918 2.4096 12.4245 2.21753 13.5928C2.18974 13.7588 2.20062 13.929 2.24933 14.09C2.29804 14.2511 2.38326 14.3988 2.49837 14.5216C2.61347 14.6444 2.75535 14.739 2.91296 14.7979C3.07058 14.8569 3.23968 14.8787 3.4071 14.8617H3.41278L6.22678 14.5545C6.23028 14.5904 6.23422 14.6232 6.23728 14.6534C6.27343 14.9963 6.42635 15.3164 6.67041 15.56L8.04372 16.9343C8.28691 17.1788 8.6069 17.3319 8.94978 17.3679L9.04385 17.378L8.7376 20.1888V20.1945C8.72194 20.3459 8.73805 20.4989 8.78489 20.6437C8.83172 20.7885 8.90825 20.9219 9.00959 21.0354C9.11092 21.149 9.23483 21.2401 9.37339 21.303C9.51195 21.3659 9.66212 21.3992 9.81428 21.4008C9.87511 21.4009 9.93584 21.3959 9.99585 21.3859C11.1705 21.1969 14.0143 20.4841 15.1229 17.9442C15.4366 17.224 15.5753 16.3668 15.5363 15.3915C16.0617 14.9966 16.558 14.5645 17.0217 14.0986C18.4842 12.6433 19.8448 10.5142 20.754 8.25647C21.6592 6.00924 22 3.94271 21.6898 2.58894ZM17.0059 10.2407C16.6464 10.6006 16.1883 10.8458 15.6895 10.9453C15.1906 11.0447 14.6735 10.9939 14.2035 10.7994C13.7335 10.6048 13.3318 10.2752 13.0492 9.8523C12.7665 9.42937 12.6157 8.9321 12.6157 8.4234C12.6157 7.9147 12.7665 7.41743 13.0492 6.99449C13.3318 6.57156 13.7335 6.24197 14.2035 6.04742C14.6735 5.85287 15.1906 5.80211 15.6895 5.90155C16.1883 6.00098 16.6464 6.24616 17.0059 6.60605C17.2469 6.8434 17.4382 7.12631 17.5688 7.43831C17.6994 7.7503 17.7667 8.08516 17.7667 8.4234C17.7667 8.76163 17.6994 9.09649 17.5688 9.40849C17.4382 9.72049 17.2469 10.0034 17.0059 10.2407Z" fill="#D62C46"/>
<path d="M7.88555 17.3065C7.71626 17.2855 7.54512 17.327 7.4043 17.4233C7.12473 17.6145 6.84386 17.8035 6.56036 17.9877C5.9868 18.3605 5.3008 17.7059 5.64161 17.1126L6.17317 16.1938C6.24917 16.0826 6.29148 15.9519 6.29505 15.8172C6.29861 15.6826 6.26327 15.5498 6.19326 15.4348C6.12325 15.3197 6.02155 15.2273 5.90034 15.1686C5.77914 15.1099 5.64358 15.0874 5.50992 15.1039C4.91995 15.1785 4.37156 15.4472 3.95111 15.8678C3.79098 16.0284 3.30405 16.5158 3.04198 18.3732C2.96739 18.9067 2.92037 19.4437 2.90111 19.9821C2.89871 20.0755 2.91505 20.1685 2.94916 20.2555C2.98326 20.3425 3.03444 20.4218 3.09968 20.4887C3.16492 20.5556 3.2429 20.6088 3.32902 20.6451C3.41514 20.6814 3.50765 20.7001 3.60111 20.7001H3.61861C4.15732 20.681 4.69469 20.6343 5.22861 20.5601C7.08667 20.2975 7.57405 19.8101 7.73417 19.65C8.15666 19.2293 8.42474 18.6783 8.49498 18.0862C8.51748 17.902 8.46592 17.7164 8.35164 17.5702C8.23736 17.424 8.06972 17.3291 7.88555 17.3065Z" fill="#D62C46"/>
</g>
<defs>
<clipPath id="clip0_639_6224">
<rect width="19.2" height="19.202" fill="white" transform="translate(0.802002 0.398438)"/>
</clipPath>
</defs>
</svg>
