<svg width="48" height="48" viewBox="0 0 48 48" fill="none" xmlns="http://www.w3.org/2000/svg">
<rect y="-0.00488281" width="48" height="48" rx="24" fill="#F0E1DC"/>
<path d="M18.5 33.9951V26.9951" stroke="#D62C46" stroke-width="1.5" stroke-miterlimit="10" stroke-linecap="round" stroke-linejoin="round"/>
<path d="M18.5 16.9951V13.9951" stroke="#D62C46" stroke-width="1.5" stroke-miterlimit="10" stroke-linecap="round" stroke-linejoin="round"/>
<path d="M29.5 33.9951V30.9951" stroke="#D62C46" stroke-width="1.5" stroke-miterlimit="10" stroke-linecap="round" stroke-linejoin="round"/>
<path d="M29.5 20.9951V13.9951" stroke="#D62C46" stroke-width="1.5" stroke-miterlimit="10" stroke-linecap="round" stroke-linejoin="round"/>
<path d="M21.5 18.9951V24.9951C21.5 26.0951 21 26.9951 19.5 26.9951H17.5C16 26.9951 15.5 26.0951 15.5 24.9951V18.9951C15.5 17.8951 16 16.9951 17.5 16.9951H19.5C21 16.9951 21.5 17.8951 21.5 18.9951Z" stroke="#D62C46" stroke-width="1.5" stroke-miterlimit="10" stroke-linecap="round" stroke-linejoin="round"/>
<path d="M32.5 22.9951V28.9951C32.5 30.0951 32 30.9951 30.5 30.9951H28.5C27 30.9951 26.5 30.0951 26.5 28.9951V22.9951C26.5 21.8951 27 20.9951 28.5 20.9951H30.5C32 20.9951 32.5 21.8951 32.5 22.9951Z" stroke="#D62C46" stroke-width="1.5" stroke-miterlimit="10" stroke-linecap="round" stroke-linejoin="round"/>
</svg>
