<svg width="48" height="48" viewBox="0 0 48 48" fill="none" xmlns="http://www.w3.org/2000/svg">
<rect y="-0.00488281" width="48" height="48" rx="24" fill="#F0E1DC"/>
<path d="M15 20.9951C16.1046 20.9951 17 20.0997 17 18.9951C17 17.8905 16.1046 16.9951 15 16.9951C13.8954 16.9951 13 17.8905 13 18.9951C13 20.0997 13.8954 20.9951 15 20.9951Z" stroke="#D62C46" stroke-width="1.5" stroke-miterlimit="10" stroke-linecap="round" stroke-linejoin="round"/>
<path d="M33 20.9951C34.1046 20.9951 35 20.0997 35 18.9951C35 17.8905 34.1046 16.9951 33 16.9951C31.8954 16.9951 31 17.8905 31 18.9951C31 20.0997 31.8954 20.9951 33 20.9951Z" stroke="#D62C46" stroke-width="1.5" stroke-miterlimit="10" stroke-linecap="round" stroke-linejoin="round"/>
<path d="M31 18.9951H27" stroke="#D62C46" stroke-width="1.5" stroke-miterlimit="10" stroke-linecap="round" stroke-linejoin="round"/>
<path d="M21 18.9951H17" stroke="#D62C46" stroke-width="1.5" stroke-miterlimit="10" stroke-linecap="round" stroke-linejoin="round"/>
<path d="M19.5 28.4951V30.4951C19.5 31.1051 19.13 31.6351 18.61 31.8551C18.42 31.9451 18.22 31.9951 18 31.9951H16C15.17 31.9951 14.5 31.3251 14.5 30.4951V28.4951C14.5 27.6651 15.17 26.9951 16 26.9951H18C18.83 26.9951 19.5 27.6651 19.5 28.4951Z" stroke="#D62C46" stroke-width="1.5" stroke-miterlimit="10" stroke-linecap="round" stroke-linejoin="round"/>
<path d="M33.5 28.4951V30.4951C33.5 31.3251 32.83 31.9951 32 31.9951H30C29.78 31.9951 29.58 31.9451 29.39 31.8551C28.87 31.6351 28.5 31.1051 28.5 30.4951V28.4951C28.5 27.6651 29.17 26.9951 30 26.9951H32C32.83 26.9951 33.5 27.6651 33.5 28.4951Z" stroke="#D62C46" stroke-width="1.5" stroke-miterlimit="10" stroke-linecap="round" stroke-linejoin="round"/>
<path d="M27 17.4951V20.4951C27 21.3151 26.32 21.9951 25.5 21.9951H22.5C21.68 21.9951 21 21.3151 21 20.4951V17.4951C21 16.6751 21.68 15.9951 22.5 15.9951H25.5C26.32 15.9951 27 16.6751 27 17.4951Z" stroke="#D62C46" stroke-width="1.5" stroke-miterlimit="10" stroke-linecap="round" stroke-linejoin="round"/>
<path d="M27 19.7246C29.37 20.9246 31 23.5046 31 26.4946C31 26.6646 30.99 26.8246 30.97 26.9946" stroke="#D62C46" stroke-width="1.5" stroke-miterlimit="10" stroke-linecap="round" stroke-linejoin="round"/>
<path d="M17.03 26.9946C17.01 26.8246 17 26.6646 17 26.4946C17 23.5046 18.63 20.9246 21 19.7246" stroke="#D62C46" stroke-width="1.5" stroke-miterlimit="10" stroke-linecap="round" stroke-linejoin="round"/>
</svg>
