<svg width="48" height="48" viewBox="0 0 48 48" fill="none" xmlns="http://www.w3.org/2000/svg">
<rect y="-0.00488281" width="48" height="48" rx="24" fill="#F0E1DC"/>
<path d="M24.1601 22.8651C24.0601 22.8551 23.9401 22.8551 23.8301 22.8651C21.4501 22.7851 19.5601 20.8351 19.5601 18.4351C19.5601 15.9851 21.5401 13.9951 24.0001 13.9951C26.4501 13.9951 28.4401 15.9851 28.4401 18.4351C28.4301 20.8351 26.5401 22.7851 24.1601 22.8651Z" stroke="#D62C46" stroke-width="1.5" stroke-linecap="round" stroke-linejoin="round"/>
<path d="M19.16 26.5551C16.74 28.1751 16.74 30.8151 19.16 32.4251C21.91 34.2651 26.42 34.2651 29.17 32.4251C31.59 30.8051 31.59 28.1651 29.17 26.5551C26.43 24.7251 21.92 24.7251 19.16 26.5551Z" stroke="#D62C46" stroke-width="1.5" stroke-linecap="round" stroke-linejoin="round"/>
</svg>
