<svg width="48" height="48" viewBox="0 0 48 48" fill="none" xmlns="http://www.w3.org/2000/svg">
<rect y="-0.00488281" width="48" height="48" rx="24" fill="#F0E1DC"/>
<path d="M21.16 22.8651C21.06 22.8551 20.94 22.8551 20.83 22.8651C18.45 22.7851 16.56 20.8351 16.56 18.4351C16.56 15.9851 18.54 13.9951 21 13.9951C23.45 13.9951 25.44 15.9851 25.44 18.4351C25.43 20.8351 23.54 22.7851 21.16 22.8651Z" stroke="#D62C46" stroke-width="1.5" stroke-linecap="round" stroke-linejoin="round"/>
<path d="M28.41 15.9951C30.35 15.9951 31.91 17.5651 31.91 19.4951C31.91 21.3851 30.41 22.9251 28.54 22.9951C28.46 22.9851 28.37 22.9851 28.28 22.9951" stroke="#D62C46" stroke-width="1.5" stroke-linecap="round" stroke-linejoin="round"/>
<path d="M16.16 26.5551C13.74 28.1751 13.74 30.8151 16.16 32.4251C18.91 34.2651 23.42 34.2651 26.17 32.4251C28.59 30.8051 28.59 28.1651 26.17 26.5551C23.43 24.7251 18.92 24.7251 16.16 26.5551Z" stroke="#D62C46" stroke-width="1.5" stroke-linecap="round" stroke-linejoin="round"/>
<path d="M30.34 31.9951C31.06 31.8451 31.74 31.5551 32.3 31.1251C33.86 29.9551 33.86 28.0251 32.3 26.8551C31.75 26.4351 31.08 26.1551 30.37 25.9951" stroke="#D62C46" stroke-width="1.5" stroke-linecap="round" stroke-linejoin="round"/>
</svg>

