<svg width="48" height="48" viewBox="0 0 48 48" fill="none" xmlns="http://www.w3.org/2000/svg">
<rect y="-0.00488281" width="48" height="48" rx="24" fill="#F0E1DC"/>
<path d="M30 19.1551C29.94 19.1451 29.87 19.1451 29.81 19.1551C28.43 19.1051 27.33 17.9751 27.33 16.5751C27.33 15.1451 28.48 13.9951 29.91 13.9951C31.34 13.9951 32.49 15.1551 32.49 16.5751C32.48 17.9751 31.38 19.1051 30 19.1551Z" stroke="#D62C46" stroke-width="1.5" stroke-linecap="round" stroke-linejoin="round"/>
<path d="M28.9699 26.4353C30.3399 26.6653 31.8499 26.4253 32.9099 25.7153C34.3199 24.7753 34.3199 23.2353 32.9099 22.2953C31.8399 21.5853 30.3099 21.3453 28.9399 21.5853" stroke="#D62C46" stroke-width="1.5" stroke-linecap="round" stroke-linejoin="round"/>
<path d="M17.97 19.1551C18.03 19.1451 18.1 19.1451 18.16 19.1551C19.54 19.1051 20.64 17.9751 20.64 16.5751C20.64 15.1451 19.49 13.9951 18.06 13.9951C16.63 13.9951 15.48 15.1551 15.48 16.5751C15.49 17.9751 16.59 19.1051 17.97 19.1551Z" stroke="#D62C46" stroke-width="1.5" stroke-linecap="round" stroke-linejoin="round"/>
<path d="M18.9999 26.4353C17.6299 26.6653 16.1199 26.4253 15.0599 25.7153C13.6499 24.7753 13.6499 23.2353 15.0599 22.2953C16.1299 21.5853 17.6599 21.3453 19.0299 21.5853" stroke="#D62C46" stroke-width="1.5" stroke-linecap="round" stroke-linejoin="round"/>
<path d="M24 26.6248C23.94 26.6148 23.87 26.6148 23.81 26.6248C22.43 26.5748 21.33 25.4448 21.33 24.0448C21.33 22.6148 22.48 21.4648 23.91 21.4648C25.34 21.4648 26.49 22.6248 26.49 24.0448C26.48 25.4448 25.38 26.5848 24 26.6248Z" stroke="#D62C46" stroke-width="1.5" stroke-linecap="round" stroke-linejoin="round"/>
<path d="M21.09 29.7745C19.68 30.7145 19.68 32.2545 21.09 33.1945C22.69 34.2645 25.31 34.2645 26.91 33.1945C28.32 32.2545 28.32 30.7145 26.91 29.7745C25.32 28.7145 22.69 28.7145 21.09 29.7745Z" stroke="#D62C46" stroke-width="1.5" stroke-linecap="round" stroke-linejoin="round"/>
</svg>
