<svg width="188" height="48" viewBox="0 0 188 48" fill="none" xmlns="http://www.w3.org/2000/svg">
<path d="M10.4621 41.5322V6.39995H45.5943V10.85H14.6779V41.5322H10.4621Z" fill="url(#paint0_linear_302_6464)"/>
<path d="M19.128 32.8662V15.0659H36.6941V19.7502H23.3439V32.8662H19.128Z" fill="url(#paint1_linear_302_6464)"/>
<path d="M45.5943 15.0659H41.2027V29.1188C41.2027 33.6461 37.5326 37.3163 33.0052 37.3163H19.128V41.5322H33.8835C40.3512 41.5322 45.5943 36.2891 45.5943 29.8214V15.0659Z" fill="url(#paint2_linear_302_6464)"/>
<path d="M27.797 28.4177V27.9462C27.797 25.4893 29.7887 23.4976 32.2456 23.4976C34.7024 23.4976 36.6941 25.4893 36.6941 27.9462V28.4177C36.6941 30.8745 34.7024 32.8662 32.2456 32.8662C29.7887 32.8662 27.797 30.8745 27.797 28.4177Z" fill="url(#paint3_linear_302_6464)"/>
<path d="M60.8151 18.1481V19.9804H57.7992V29.466H55.5291V19.9804H52.5131V18.1481H60.8151ZM70.8221 24.78C70.8221 25.1043 70.8005 25.3961 70.7573 25.6556H64.1902C64.2443 26.3042 64.4713 26.8122 64.8713 27.1798C65.2712 27.5473 65.7631 27.7311 66.3468 27.7311C67.19 27.7311 67.7899 27.3689 68.1467 26.6447H70.5951C70.3357 27.5095 69.8384 28.2229 69.1034 28.785C68.3683 29.3363 67.4657 29.612 66.3955 29.612C65.5307 29.612 64.7524 29.4228 64.0605 29.0445C63.3795 28.6553 62.8444 28.1094 62.4553 27.4068C62.0769 26.7041 61.8877 25.8934 61.8877 24.9745C61.8877 24.0449 62.0769 23.2287 62.4553 22.5261C62.8336 21.8234 63.3633 21.2829 64.0443 20.9046C64.7253 20.5263 65.5091 20.3371 66.3955 20.3371C67.2495 20.3371 68.0116 20.5208 68.6818 20.8884C69.3628 21.2559 69.8871 21.7802 70.2546 22.4612C70.633 23.1314 70.8221 23.9044 70.8221 24.78ZM68.471 24.1314C68.4602 23.5476 68.2494 23.0828 67.8386 22.7369C67.4278 22.3802 66.9252 22.2018 66.3306 22.2018C65.7685 22.2018 65.2929 22.3747 64.9037 22.7207C64.5254 23.0558 64.2929 23.526 64.2065 24.1314H68.471ZM71.8954 24.9745C71.8954 24.0449 72.0845 23.2341 72.4629 22.5423C72.8412 21.8397 73.3655 21.2992 74.0357 20.9208C74.7059 20.5317 75.4734 20.3371 76.3382 20.3371C77.4516 20.3371 78.3705 20.6181 79.0948 21.1803C79.8298 21.7316 80.3217 22.5099 80.5703 23.5152H78.1219C77.9921 23.126 77.7705 22.8234 77.457 22.6072C77.1544 22.3802 76.776 22.2666 76.322 22.2666C75.6734 22.2666 75.1599 22.5045 74.7816 22.9801C74.4032 23.4449 74.2141 24.1097 74.2141 24.9745C74.2141 25.8285 74.4032 26.4933 74.7816 26.969C75.1599 27.4338 75.6734 27.6662 76.322 27.6662C77.2409 27.6662 77.8408 27.2554 78.1219 26.4339H80.5703C80.3217 27.4068 79.8298 28.1797 79.0948 28.7526C78.3597 29.3255 77.4408 29.612 76.3382 29.612C75.4734 29.612 74.7059 29.4228 74.0357 29.0445C73.3655 28.6553 72.8412 28.1148 72.4629 27.423C72.0845 26.7203 71.8954 25.9042 71.8954 24.9745ZM87.2924 20.3533C87.9734 20.3533 88.5788 20.5046 89.1084 20.8073C89.6381 21.0992 90.0489 21.537 90.3408 22.1207C90.6434 22.6936 90.7948 23.3855 90.7948 24.1962V29.466H88.5247V24.5043C88.5247 23.7908 88.3463 23.2449 87.9896 22.8666C87.6329 22.4774 87.1464 22.2829 86.5303 22.2829C85.9033 22.2829 85.406 22.4774 85.0385 22.8666C84.6818 23.2449 84.5034 23.7908 84.5034 24.5043V29.466H82.2333V17.467H84.5034V21.6018C84.7953 21.2127 85.1844 20.91 85.6709 20.6938C86.1573 20.4668 86.6978 20.3533 87.2924 20.3533ZM92.3698 24.9421C92.3698 24.0341 92.5481 23.2287 92.9049 22.5261C93.2724 21.8234 93.7643 21.2829 94.3804 20.9046C95.0074 20.5263 95.7046 20.3371 96.4721 20.3371C97.1424 20.3371 97.7261 20.4722 98.2234 20.7425C98.7314 21.0127 99.1368 21.3532 99.4395 21.764V20.483H101.726V29.466H99.4395V28.1526C99.1476 28.5742 98.7422 28.9256 98.2234 29.2066C97.7153 29.4769 97.1261 29.612 96.4559 29.612C95.6992 29.612 95.0074 29.4174 94.3804 29.0282C93.7643 28.6391 93.2724 28.0932 92.9049 27.3905C92.5481 26.6771 92.3698 25.8609 92.3698 24.9421ZM99.4395 24.9745C99.4395 24.4232 99.3314 23.953 99.1152 23.5638C98.899 23.1639 98.6071 22.8612 98.2396 22.6558C97.872 22.4396 97.4775 22.3315 97.0559 22.3315C96.6343 22.3315 96.2451 22.4342 95.8884 22.6396C95.5317 22.845 95.2398 23.1477 95.0128 23.5476C94.7966 23.9368 94.6885 24.4016 94.6885 24.9421C94.6885 25.4826 94.7966 25.9582 95.0128 26.369C95.2398 26.769 95.5317 27.0771 95.8884 27.2933C96.2559 27.5095 96.6451 27.6176 97.0559 27.6176C97.4775 27.6176 97.872 27.5149 98.2396 27.3095C98.6071 27.0933 98.899 26.7906 99.1152 26.4014C99.3314 26.0015 99.4395 25.5258 99.4395 24.9745ZM106.586 22.3477V26.6933C106.586 26.996 106.656 27.2176 106.797 27.3581C106.948 27.4878 107.197 27.5527 107.543 27.5527H108.597V29.466H107.17C105.256 29.466 104.3 28.5364 104.3 26.6771V22.3477H103.229V20.483H104.3V18.2616H106.586V20.483H108.597V22.3477H106.586ZM115.288 20.3533C115.969 20.3533 116.575 20.5046 117.104 20.8073C117.634 21.0992 118.045 21.537 118.337 22.1207C118.639 22.6936 118.791 23.3855 118.791 24.1962V29.466H116.521V24.5043C116.521 23.7908 116.342 23.2449 115.986 22.8666C115.629 22.4774 115.142 22.2829 114.526 22.2829C113.899 22.2829 113.402 22.4774 113.034 22.8666C112.678 23.2449 112.499 23.7908 112.499 24.5043V29.466H110.229V17.467H112.499V21.6018C112.791 21.2127 113.18 20.91 113.667 20.6938C114.153 20.4668 114.694 20.3533 115.288 20.3533ZM124.938 29.612C124.074 29.612 123.295 29.4228 122.603 29.0445C121.912 28.6553 121.366 28.1094 120.966 27.4068C120.577 26.7041 120.382 25.8934 120.382 24.9745C120.382 24.0557 120.582 23.2449 120.982 22.5423C121.393 21.8397 121.949 21.2992 122.652 20.9208C123.355 20.5317 124.138 20.3371 125.003 20.3371C125.868 20.3371 126.652 20.5317 127.354 20.9208C128.057 21.2992 128.608 21.8397 129.008 22.5423C129.419 23.2449 129.624 24.0557 129.624 24.9745C129.624 25.8934 129.414 26.7041 128.992 27.4068C128.581 28.1094 128.019 28.6553 127.306 29.0445C126.603 29.4228 125.814 29.612 124.938 29.612ZM124.938 27.6338C125.349 27.6338 125.733 27.5365 126.09 27.3419C126.457 27.1365 126.749 26.8338 126.965 26.4339C127.181 26.0339 127.29 25.5475 127.29 24.9745C127.29 24.1205 127.063 23.4665 126.608 23.0125C126.165 22.5477 125.619 22.3153 124.971 22.3153C124.322 22.3153 123.776 22.5477 123.333 23.0125C122.901 23.4665 122.684 24.1205 122.684 24.9745C122.684 25.8285 122.895 26.4879 123.317 26.9527C123.749 27.4068 124.29 27.6338 124.938 27.6338ZM136.268 20.3533C137.338 20.3533 138.203 20.6938 138.862 21.3748C139.521 22.045 139.851 22.9855 139.851 24.1962V29.466H137.581V24.5043C137.581 23.7908 137.403 23.2449 137.046 22.8666C136.689 22.4774 136.203 22.2829 135.587 22.2829C134.96 22.2829 134.462 22.4774 134.095 22.8666C133.738 23.2449 133.56 23.7908 133.56 24.5043V29.466H131.29V20.483H133.56V21.6018C133.862 21.2127 134.246 20.91 134.711 20.6938C135.187 20.4668 135.705 20.3533 136.268 20.3533Z" fill="#141414"/>
<defs>
<linearGradient id="paint0_linear_302_6464" x1="10.4621" y1="5.6973" x2="32.0098" y2="29.2359" gradientUnits="userSpaceOnUse">
<stop offset="0.0104167" stop-color="#22CBD5"/>
<stop offset="1" stop-color="#995ED5"/>
</linearGradient>
<linearGradient id="paint1_linear_302_6464" x1="10.4621" y1="5.6973" x2="32.0098" y2="29.2359" gradientUnits="userSpaceOnUse">
<stop offset="0.0104167" stop-color="#22CBD5"/>
<stop offset="1" stop-color="#995ED5"/>
</linearGradient>
<linearGradient id="paint2_linear_302_6464" x1="10.4621" y1="5.6973" x2="32.0098" y2="29.2359" gradientUnits="userSpaceOnUse">
<stop offset="0.0104167" stop-color="#22CBD5"/>
<stop offset="1" stop-color="#995ED5"/>
</linearGradient>
<linearGradient id="paint3_linear_302_6464" x1="10.4621" y1="5.6973" x2="32.0098" y2="29.2359" gradientUnits="userSpaceOnUse">
<stop offset="0.0104167" stop-color="#22CBD5"/>
<stop offset="1" stop-color="#995ED5"/>
</linearGradient>
</defs>
</svg>
