<svg width="48" height="48" viewBox="0 0 48 48" fill="none" xmlns="http://www.w3.org/2000/svg">
<rect x="0.00195312" y="0.00244141" width="48" height="48" rx="24" fill="#F0E1DC"/>
<path d="M24.2154 22.4922C24.082 22.4789 23.922 22.4789 23.7754 22.4922C20.602 22.3855 18.082 19.7855 18.082 16.5855C18.082 13.3189 20.722 10.6655 24.002 10.6655C27.2687 10.6655 29.922 13.3189 29.922 16.5855C29.9087 19.7855 27.3887 22.3855 24.2154 22.4922Z" stroke="#D62C46" stroke-width="1.5" stroke-linecap="round" stroke-linejoin="round"/>
<path d="M17.5484 27.4125C14.3218 29.5725 14.3218 33.0925 17.5484 35.2392C21.2151 37.6925 27.2284 37.6925 30.8951 35.2392C34.1218 33.0792 34.1218 29.5592 30.8951 27.4125C27.2418 24.9725 21.2284 24.9725 17.5484 27.4125Z" stroke="#D62C46" stroke-width="1.5" stroke-linecap="round" stroke-linejoin="round"/>
</svg>
