<svg width="48" height="48" viewBox="0 0 48 48" fill="none" xmlns="http://www.w3.org/2000/svg">
<rect x="0.00195312" y="0.000488281" width="48" height="48" rx="24" fill="#F0E1DC"/>
<path d="M21.402 11.3724L13.3753 16.6124C10.802 18.2924 10.802 22.0524 13.3753 23.7324L21.402 28.9724C22.842 29.9191 25.2153 29.9191 26.6553 28.9724L34.642 23.7324C37.202 22.0524 37.202 18.3057 34.642 16.6257L26.6553 11.3857C25.2153 10.4257 22.842 10.4257 21.402 11.3724Z" stroke="#D62C46" stroke-width="1.5" stroke-linecap="round" stroke-linejoin="round"/>
<path d="M15.5085 25.439L15.4951 31.6923C15.4951 33.3856 16.8018 35.199 18.4018 35.7323L22.6551 37.1456C23.3885 37.3856 24.6018 37.3856 25.3485 37.1456L29.6018 35.7323C31.2018 35.199 32.5085 33.3856 32.5085 31.6923V25.5056" stroke="#D62C46" stroke-width="1.5" stroke-linecap="round" stroke-linejoin="round"/>
<path d="M36.5352 27.999V19.999" stroke="#D62C46" stroke-width="1.5" stroke-linecap="round" stroke-linejoin="round"/>
</svg>
