<svg width="585" height="400" viewBox="0 0 585 400" fill="none" xmlns="http://www.w3.org/2000/svg">
<rect width="585" height="400" rx="8" fill="black"/>
<path d="M157.05 208.2H153.233C152.55 208.2 151.983 207.633 151.983 206.95C151.983 206.267 152.55 205.7 153.233 205.7H157.05C157.767 205.7 158.35 205.117 158.35 204.4C158.35 203.683 157.767 203.1 157.05 203.1H153.233C152.833 203.1 152.45 202.9 152.217 202.583C151.983 202.267 151.917 201.833 152.05 201.45L153.317 197.633C153.483 197.117 153.967 196.783 154.5 196.783H159.6C160.283 196.783 160.85 197.35 160.85 198.033C160.85 198.717 160.283 199.283 159.6 199.283H155.4L154.967 200.6H157.05C159.15 200.6 160.85 202.3 160.85 204.4C160.85 206.5 159.133 208.2 157.05 208.2Z" fill="#A7A8AC"/>
<path d="M148.9 208.2C148.217 208.2 147.65 207.633 147.65 206.95V201.3L147.333 201.666C146.867 202.183 146.083 202.216 145.567 201.766C145.067 201.3 145.017 200.516 145.483 200L147.983 197.216C148.333 196.833 148.883 196.7 149.367 196.883C149.85 197.066 150.167 197.533 150.167 198.05V206.966C150.15 207.65 149.6 208.2 148.9 208.2Z" fill="#A7A8AC"/>
<path d="M153 185.8C152.867 185.8 152.733 185.817 152.6 185.817L153.967 184.117C154.4 183.584 154.317 182.784 153.767 182.367C153.217 181.95 152.45 182.017 152.017 182.567L148.733 186.667C148.717 186.684 148.717 186.7 148.7 186.734C148.65 186.8 148.617 186.884 148.583 186.95C148.55 187.034 148.517 187.1 148.5 187.167C148.483 187.25 148.483 187.317 148.483 187.4C148.483 187.484 148.483 187.567 148.483 187.65C148.483 187.684 148.483 187.7 148.483 187.734C148.5 187.784 148.533 187.817 148.55 187.867C148.583 187.95 148.617 188.017 148.65 188.1C148.7 188.167 148.75 188.234 148.817 188.284C148.85 188.334 148.867 188.384 148.917 188.417C148.95 188.434 148.967 188.45 149 188.467C149.033 188.5 149.083 188.517 149.133 188.534C149.217 188.584 149.317 188.617 149.4 188.634C149.467 188.667 149.517 188.667 149.567 188.667C149.617 188.667 149.65 188.684 149.7 188.684C149.75 188.684 149.783 188.667 149.817 188.65C149.867 188.65 149.917 188.667 149.967 188.65C151.033 188.4 152.033 188.284 152.983 188.284C160.467 188.284 166.55 194.367 166.55 201.85C166.55 209.334 160.467 215.417 152.983 215.417C145.5 215.417 139.417 209.334 139.417 201.85C139.417 198.95 140.367 196.15 142.167 193.75C142.583 193.2 142.467 192.417 141.917 192C141.367 191.584 140.583 191.7 140.167 192.25C138.033 195.084 136.917 198.4 136.917 201.85C136.917 210.7 144.117 217.917 152.983 217.917C161.85 217.917 169.05 210.717 169.05 201.85C169.05 192.984 161.85 185.8 153 185.8Z" fill="#A7A8AC"/>
<path d="M437.05 208.2H433.233C432.55 208.2 431.983 207.633 431.983 206.95C431.983 206.267 432.55 205.7 433.233 205.7H437.05C437.767 205.7 438.35 205.117 438.35 204.4C438.35 203.683 437.767 203.1 437.05 203.1H433.233C432.833 203.1 432.45 202.9 432.217 202.583C431.983 202.267 431.917 201.833 432.05 201.45L433.317 197.633C433.483 197.117 433.967 196.783 434.5 196.783H439.6C440.283 196.783 440.85 197.35 440.85 198.033C440.85 198.717 440.283 199.283 439.6 199.283H435.4L434.967 200.6H437.05C439.15 200.6 440.85 202.3 440.85 204.4C440.85 206.5 439.133 208.2 437.05 208.2Z" fill="#A7A8AC"/>
<path d="M428.9 208.2C428.217 208.2 427.65 207.633 427.65 206.95V201.3L427.333 201.666C426.867 202.183 426.083 202.216 425.567 201.766C425.067 201.3 425.017 200.516 425.483 200L427.983 197.216C428.333 196.833 428.883 196.7 429.367 196.883C429.85 197.066 430.167 197.533 430.167 198.05V206.966C430.15 207.65 429.6 208.2 428.9 208.2Z" fill="#A7A8AC"/>
<path d="M445.817 192.25C445.4 191.7 444.617 191.584 444.067 192C443.517 192.417 443.4 193.2 443.817 193.75C445.617 196.15 446.567 198.95 446.567 201.85C446.567 209.334 440.483 215.417 433 215.417C425.517 215.417 419.433 209.334 419.433 201.85C419.433 194.367 425.517 188.3 433 188.3C433.967 188.3 434.95 188.417 436.017 188.667C436.067 188.684 436.117 188.667 436.167 188.667C436.217 188.667 436.25 188.7 436.283 188.7C436.333 188.7 436.367 188.684 436.417 188.684C436.467 188.684 436.517 188.667 436.583 188.65C436.683 188.634 436.767 188.584 436.85 188.55C436.9 188.517 436.95 188.5 437 188.467C437.017 188.45 437.05 188.45 437.067 188.434C437.117 188.4 437.133 188.35 437.167 188.317C437.233 188.25 437.283 188.2 437.333 188.117C437.383 188.05 437.4 187.967 437.433 187.884C437.45 187.834 437.483 187.784 437.5 187.734C437.5 187.7 437.5 187.684 437.5 187.65C437.517 187.567 437.517 187.484 437.5 187.4C437.5 187.317 437.5 187.25 437.483 187.167C437.467 187.1 437.433 187.034 437.4 186.95C437.367 186.867 437.333 186.784 437.283 186.717C437.283 186.7 437.283 186.684 437.267 186.667L433.967 182.55C433.533 182.017 432.75 181.917 432.217 182.35C431.683 182.784 431.6 183.567 432.017 184.1L433.383 185.8C433.25 185.8 433.117 185.784 432.983 185.784C424.133 185.784 416.917 192.984 416.917 201.85C416.917 210.717 424.117 217.917 432.983 217.917C441.85 217.917 449.05 210.717 449.05 201.85C449.067 198.4 447.933 195.084 445.817 192.25Z" fill="#A7A8AC"/>
<path d="M265.533 184.066V215.966C265.533 222.5 272.633 226.6 278.3 223.333L292.133 215.366L305.967 207.366C311.633 204.1 311.633 195.933 305.967 192.666L292.133 184.666L278.3 176.7C272.633 173.433 265.533 177.5 265.533 184.066Z" fill="#FDFDFD"/>
<rect width="585" height="8" transform="translate(0 376.001)" fill="#BEC3FB"/>
<rect y="376" width="84" height="8" fill="#969BD3"/>
<path d="M0 376H45C47.2091 376 49 377.791 49 380C49 382.209 47.2091 384 45 384H0V376Z" fill="#5C2CC7"/>
<path d="M53 379.2C53 383.618 49.4183 387.2 45 387.2C40.5817 387.2 37 383.618 37 379.2C37 374.782 40.5817 371.2 45 371.2C49.4183 371.2 53 374.782 53 379.2Z" fill="#5C2CC7"/>
<mask id="mask0_344_7202" style="mask-type:alpha" maskUnits="userSpaceOnUse" x="545" y="336" width="24" height="24">
<rect x="545" y="336" width="24" height="24" fill="#D9D9D9"/>
</mask>
<g mask="url(#mask0_344_7202)">
<path d="M550.998 355.001C550.715 355.001 550.477 354.905 550.285 354.713C550.094 354.522 549.998 354.284 549.998 354.001V351.001C549.998 350.718 550.094 350.48 550.285 350.288C550.477 350.097 550.715 350.001 550.998 350.001C551.281 350.001 551.519 350.097 551.711 350.288C551.902 350.48 551.998 350.718 551.998 351.001V353.001H553.998C554.281 353.001 554.519 353.097 554.711 353.289C554.902 353.48 554.998 353.718 554.998 354.001C554.998 354.284 554.902 354.522 554.711 354.713C554.519 354.905 554.281 355.001 553.998 355.001H550.998ZM550.998 346.001C550.715 346.001 550.477 345.905 550.285 345.713C550.094 345.522 549.998 345.284 549.998 345.001V342.001C549.998 341.718 550.094 341.48 550.285 341.288C550.477 341.097 550.715 341.001 550.998 341.001H553.998C554.281 341.001 554.519 341.097 554.711 341.288C554.902 341.48 554.998 341.718 554.998 342.001C554.998 342.284 554.902 342.522 554.711 342.714C554.519 342.905 554.281 343.001 553.998 343.001H551.998V345.001C551.998 345.284 551.902 345.522 551.711 345.713C551.519 345.905 551.281 346.001 550.998 346.001ZM559.998 355.001C559.715 355.001 559.477 354.905 559.286 354.713C559.094 354.522 558.998 354.284 558.998 354.001C558.998 353.718 559.094 353.48 559.286 353.289C559.477 353.097 559.715 353.001 559.998 353.001H561.998V351.001C561.998 350.718 562.094 350.48 562.286 350.288C562.477 350.097 562.715 350.001 562.998 350.001C563.281 350.001 563.519 350.097 563.71 350.288C563.902 350.48 563.998 350.718 563.998 351.001V354.001C563.998 354.284 563.902 354.522 563.71 354.713C563.519 354.905 563.281 355.001 562.998 355.001H559.998ZM562.998 346.001C562.715 346.001 562.477 345.905 562.286 345.713C562.094 345.522 561.998 345.284 561.998 345.001V343.001H559.998C559.715 343.001 559.477 342.905 559.286 342.714C559.094 342.522 558.998 342.284 558.998 342.001C558.998 341.718 559.094 341.48 559.286 341.288C559.477 341.097 559.715 341.001 559.998 341.001H562.998C563.281 341.001 563.519 341.097 563.71 341.288C563.902 341.48 563.998 341.718 563.998 342.001V345.001C563.998 345.284 563.902 345.522 563.71 345.713C563.519 345.905 563.281 346.001 562.998 346.001Z" fill="#FDFDFD"/>
</g>
<path d="M573.097 21.2204C571.287 21.2204 570.547 19.9404 571.447 18.3704C571.967 17.4604 571.657 16.3004 570.747 15.7804L569.017 14.7904C568.227 14.3204 567.207 14.6004 566.737 15.3904L566.627 15.5804C565.727 17.1504 564.247 17.1504 563.337 15.5804L563.227 15.3904C562.777 14.6004 561.757 14.3204 560.967 14.7904L559.237 15.7804C558.327 16.3004 558.017 17.4704 558.537 18.3804C559.447 19.9404 558.707 21.2204 556.897 21.2204C555.857 21.2204 554.997 22.0704 554.997 23.1204V24.8804C554.997 25.9204 555.847 26.7804 556.897 26.7804C558.707 26.7804 559.447 28.0604 558.537 29.6304C558.017 30.5404 558.327 31.7004 559.237 32.2204L560.967 33.2104C561.757 33.6804 562.777 33.4004 563.247 32.6104L563.357 32.4204C564.257 30.8504 565.737 30.8504 566.647 32.4204L566.757 32.6104C567.227 33.4004 568.247 33.6804 569.037 33.2104L570.767 32.2204C571.677 31.7004 571.987 30.5304 571.467 29.6304C570.557 28.0604 571.297 26.7804 573.107 26.7804C574.147 26.7804 575.007 25.9304 575.007 24.8804V23.1204C574.997 22.0804 574.147 21.2204 573.097 21.2204ZM564.997 27.2504C563.207 27.2504 561.747 25.7904 561.747 24.0004C561.747 22.2104 563.207 20.7504 564.997 20.7504C566.787 20.7504 568.247 22.2104 568.247 24.0004C568.247 25.7904 566.787 27.2504 564.997 27.2504Z" fill="#FDFDFD"/>
<rect x="520.5" y="19.5" width="15" height="13" stroke="white"/>
<rect width="8" height="6" transform="translate(525 23.5996)" fill="white"/>
</svg>
